<svg width="16" height="16" viewBox="0 0 16 16" fill="none" xmlns="http://www.w3.org/2000/svg">
<g clip-path="url(#clip0_1_457)">
<path d="M5.3335 9.33337C7.54264 9.33337 9.3335 7.54251 9.3335 5.33337C9.3335 3.12424 7.54264 1.33337 5.3335 1.33337C3.12436 1.33337 1.3335 3.12424 1.3335 5.33337C1.3335 7.54251 3.12436 9.33337 5.3335 9.33337Z" stroke="#FBBF24" stroke-width="1.33333" stroke-linecap="round" stroke-linejoin="round"/>
<path d="M12.0602 6.91333C12.6904 7.14828 13.2512 7.53835 13.6907 8.04746C14.1302 8.55657 14.4343 9.16829 14.5747 9.82604C14.7152 10.4838 14.6875 11.1663 14.4943 11.8106C14.301 12.4548 13.9485 13.0399 13.4692 13.5117C12.9899 13.9836 12.3994 14.327 11.7522 14.5101C11.1051 14.6933 10.4222 14.7103 9.76668 14.5596C9.1112 14.4089 8.5043 14.0954 8.00211 13.648C7.49991 13.2006 7.11864 12.6338 6.89355 12" stroke="#FBBF24" stroke-width="1.33333" stroke-linecap="round" stroke-linejoin="round"/>
<path d="M4.6665 4H5.33317V6.66667" stroke="#FBBF24" stroke-width="1.33333" stroke-linecap="round" stroke-linejoin="round"/>
<path d="M11.1399 9.2533L11.6066 9.72663L9.72656 11.6066" stroke="#FBBF24" stroke-width="1.33333" stroke-linecap="round" stroke-linejoin="round"/>
</g>
<defs>
<clipPath id="clip0_1_457">
<rect width="16" height="16" fill="white"/>
</clipPath>
</defs>
</svg>
